<svg id="圖層_1" data-name="圖層 1" xmlns="http://www.w3.org/2000/svg" viewBox="0 0 661.71 57.14"><defs><style>.cls-1{fill:#0c7e7d;}</style></defs><path class="cls-1" d="M-.23,2.09H20A67.67,67.67,0,0,1,32,2.86a24.54,24.54,0,0,1,16,10.55,25.52,25.52,0,0,1,4.78,15,25.38,25.38,0,0,1-4.93,15.2A24.74,24.74,0,0,1,32.3,53.9a31.74,31.74,0,0,1-4.39.62q-1.93.1-8.47.11H-.12L0,29.23ZM23.33,4.55l-.23,31,.23,16.67a54.11,54.11,0,0,0,7.41-.41,21.87,21.87,0,0,0,5.17-1.63,22.86,22.86,0,0,0,10.82-9.55,23.5,23.5,0,0,0-.61-25.4Q38.94,4.52,24.82,4.51Z"/><path class="cls-1" d="M59,2.09H79.22a67.6,67.6,0,0,1,11.93.77,24.56,24.56,0,0,1,16,10.55,25.58,25.58,0,0,1,4.77,15A25.44,25.44,0,0,1,107,43.62,24.76,24.76,0,0,1,91.5,53.9a31.33,31.33,0,0,1-4.39.62q-1.92.1-8.47.11H59.09l.11-25.4ZM82.53,4.55l-.23,31,.23,16.67a54.11,54.11,0,0,0,7.41-.41,21.93,21.93,0,0,0,5.18-1.63,22.9,22.9,0,0,0,10.82-9.55,23.56,23.56,0,0,0-.61-25.4Q98.13,4.52,84,4.51Z"/><path class="cls-1" d="M140.74,3.13l-.24,27.29.24,23.17a25.49,25.49,0,0,0,3.3.27,24.15,24.15,0,0,0,7.73-1.34,24.43,24.43,0,0,0,7-3.66,25.76,25.76,0,0,0,4.06-4A27.77,27.77,0,0,0,166.18,40c.49-.93,1-1.39,1.58-1.39.85,0,1.27.36,1.27,1.08s-.64,2.07-1.91,3.91A33.08,33.08,0,0,1,163,48.51a26.9,26.9,0,0,1-11.59,6.59,28.77,28.77,0,0,1-7.7,1.11,27.47,27.47,0,0,1-10.82-2.31A26.75,26.75,0,0,1,119.6,42.31a27.77,27.77,0,0,1,.16-28.21A27.47,27.47,0,0,1,143.66.51,27.2,27.2,0,0,1,162.83,8q3.85,3.57,3.85,5.15a1,1,0,0,1-.38.77,1.26,1.26,0,0,1-.85.35c-.51,0-1.13-.5-1.84-1.5a23.4,23.4,0,0,0-8.73-7.26,25.57,25.57,0,0,0-11.45-2.67,12.84,12.84,0,0,0-2.69.27"/><path class="cls-1" d="M193.4,22.73h6.46V29c-.15,3.7-2.08,5.55-5.77,5.55h-22.4V22.73h9.23V21.11h-9v-6.7h-1.39V8.87h1.39V2.63h9V.55h9.7V2.63h9V8.87h.93V8.18h.92a1.82,1.82,0,0,0,2.08-1.62L205.41.79h9.23l-.92,2.54h13.4v7.85h-1.39L218.8,35l4.62,13.16a2.28,2.28,0,0,0,2.08,1.16h1.62v7.85H223a8.21,8.21,0,0,1-7.39-4.62L214.41,50,214,52.29q-2.31,4.86-7.16,4.85h-4.16l-1.38-7.85h1.62a3.72,3.72,0,0,0,3-1.85L209.1,35.2l-6.23-17.55h9.93l.69,2.08L216,11.18h-4.62v.23q-1.16,4.15-6,4.16h-3.47l-.23-1.16h-2.08v.93c-.15,3.85-2.08,5.77-5.77,5.77h-3.24v1.62ZM172.15,47V43.05h-1.62V37.28h1.62v-.93h9.7v.93h7.39v-.93h9.7v.93h1.62v5.77h-1.62V47l-7.39,4.16a10.21,10.21,0,0,0,1.85.23h6.93v5.77h-8.78a12.67,12.67,0,0,1-6-1.61l-.92-.47-1.16.7a11.16,11.16,0,0,1-4.85,1.38h-6.69l-1.16-5.77h4.85a4,4,0,0,0,2.54-.46Zm8.77-19.4h-2.77v2.08h2.77Zm0-20.32h-2.54V8.87h2.54Zm0,7.15h-2.54v2.08h2.54Zm8.32,30V43.05h-7.39v1.39l3.46,2.31Zm1.38-35.57h2.55V7.26h-2.55Zm0,7.62h1.16a1.23,1.23,0,0,0,1.39-1.38v-.7h-2.55Zm0,13.17H192a1.23,1.23,0,0,0,1.39-1.39v-.69h-2.78Z"/><path class="cls-1" d="M233.77,24.81,232.38,17h.93a2.86,2.86,0,0,0,2.31-1.84L239.77,1h9.71L243.7,20.19h3.23v37h-9.7V24.81ZM288.51,4.48v7.85H250.4V4.48H264V.55h9.7V4.48Zm-25.41,31a2,2,0,0,0,2.08,1.39H268v7.85H260.1q-4.4,0-5.77-5.54L250.86,17h9.7Zm14.55-19.17h10.17l-6.7,33h8.08v7.85H251.09V49.29H271Z"/><path class="cls-1" d="M316.18,3.33V11H294.93V3.33h6V.55h9.7V3.33Zm-20.56,46V32.66h20.1V51.37c-.16,3.85-2.08,5.77-5.78,5.77H295.62V49.29Zm19.64-28.64H295.85V13.26h19.41Zm0,9.47H295.85V22.73h19.41Zm-9.7,19.17a1.22,1.22,0,0,0,1.38-1.39V40.51H304.4v8.78Zm16.62-25.18h-6V16.72h.92c1.08,0,1.7-.46,1.85-1.38l3-13.86h23.1v.23l3.7,13.86c0,.77.46,1.15,1.38,1.15h1.16v7.39h-6.24q-3.93-.22-4.85-3H327a4.93,4.93,0,0,1-4.86,3m19.87,33-1.16-6.69a1.49,1.49,0,0,0,1.39-1.62v-3h-1.85V57.14h-5.77V45.82h-2.08V57.14H326.8V45.82H325V57.14H317.1V25h33V51.37c-.15,3.85-2.08,5.77-5.77,5.77ZM325,38h1.84V32.89H325Zm13.39-24.25-.92-4.39h-7.85l-.93,4.39ZM332.58,38h2.08V32.89h-2.08Zm9.7-5.08h-1.85V38h1.85Z"/><path class="cls-1" d="M378.26,52.06q-4.85,5.09-9.93,5.08H358.17l-1.39-7.85h7.86a4.62,4.62,0,0,0,3.69-1.62L378,36.59l-18.24-19.4h13.86L384.5,29l13.63-15.47H356.78V5.64h23.56V.56H390V5.64h23.33v7.85h-1.85l-19.86,23.1,9.93,10.62a6.9,6.9,0,0,0,5.08,2.08h6.7v7.85h-12a9.12,9.12,0,0,1-6.7-2.77L385.19,44Z"/><path class="cls-1" d="M420.72,11V3.56h13.85v-3H444v3h6v-3h9.47v3h14.09V37.51h1.84v7.85H418.87V37.51h1.85Zm21.71,36.72L439.89,53a9.93,9.93,0,0,1-8.55,4.15H420.25l-1.38-6.46H426a5,5,0,0,0,3-1.16l1.39-1.85ZM434.57,11h-6v9.47h6Zm0,17.32h-6v9.24h6ZM450.05,11h-6v9.47h6Zm0,17.32h-6v9.24h6ZM466,49.75a4.08,4.08,0,0,0,3,.93h6.46v6.46H461.6a8.65,8.65,0,0,1-6.24-2.54l-3-6.93h12Zm-6.47-29.33h6.24V11h-6.24Zm6.24,7.85h-6.24v9.24h6.24Z"/><path class="cls-1" d="M481,41.44V34.51h10.63V30.58h-9.47V14h6.46v9.7h3V13.72h29.1l-.46-2.08h-.46V9.79h-21v1.85H489V9.79H481V2.86H489V.55h9.71V2.86h21V.55h9.7V2.86h8.08V9.79h-8.08V11l.23,2.77h2.54l-.7-1.85h4.16l.46,1.85h1.39v6.93h-6.93l1.62,11.55L533.61,23h3.7L535,44.44c-.16,1.38-.31,2.62-.46,3.7,0,1.07.46,1.61,1.38,1.61h1.62v7.39H531.3q-5.31-.22-5.54-5.31l-.23-1.15h-1.85l-1.15-6.93h2.07l-3-23.1H501.28V51.37c-.16,3.85-2.08,5.77-5.78,5.77h-4.85l-1.15-6.93h.69a1.22,1.22,0,0,0,1.39-1.38V41.44h-2.31V52.52a7.27,7.27,0,0,1-1.16,3,4.39,4.39,0,0,1-3.46,1.61h-2.77l-1.16-6.93h.46a2.9,2.9,0,0,0,1.16-.46,1.59,1.59,0,0,0,.46-1.15V41.44ZM521.83,50v6.93H502.66V23.19h18.48v6.93h-2.77v3.23h3.46V41c0,3.08-1.15,4.92-3.46,5.54V50Zm-9.47-19.86h-2.31v3.23h2.31Zm2.54,10.16V38.43h-4.85v3.24h3.47a1.22,1.22,0,0,0,1.38-1.39m-2.54,6.47h-2.31V50h2.31Z"/><path class="cls-1" d="M544.65,8.87H543V1.48H566.6V8.87h-1.85V57.14H556V52.75H543V44.9h1.62Zm11.32,0h-3.23V16H556Zm0,14.55h-3.23v7.16H556ZM556,38h-3.23V44.9H556ZM571.45,15.8h-4.62V8.87l6-8.08h9.24l-6,8.08h5.09v6l-4.85,7.85h.92a1.23,1.23,0,0,0,1.39-1.39V20.19h3.23v3.69c-.16,3.85-2.08,5.78-5.78,5.78H566.6V23.42Zm-4.62,26.33V32.66H571v9.47h1.85V31.74h9.24V52.52a4.2,4.2,0,0,1-1.39,3,3.75,3.75,0,0,1-3.23,1.61H567.29l-.69-4.62h4.62a2.83,2.83,0,0,0,1.15-.46,1.55,1.55,0,0,0,.46-1.15V50h-6V42.13ZM588.54,15.8h-5.08V8.87L589.23.79h9.24l-5.78,8.08h5.55v6l-4.85,7.85h1.15a1.23,1.23,0,0,0,1.39-1.39V20h3.23v3.92c-.15,3.85-2.08,5.78-5.77,5.78h-9.7V23.42Zm4.39,41.34h-9.24V31.74h9.24V42.59h.46a2.69,2.69,0,0,0,1.15-.46A1.55,1.55,0,0,0,595,41V32.66h4.16V46.29A7.12,7.12,0,0,1,598,49.06a4.24,4.24,0,0,1-3,1.39h-2.07Z"/><path class="cls-1" d="M607,40.74V33.35h52.89V49.29h1.85v7.85H605.35V49.29H607Zm-.69-17.55V1.48h24V24.34c0,3.86-1.84,5.78-5.54,5.78H606.28V23.19Zm15-14.78h-6v4.16h6Zm-6,10.62v4.16h4.62a1.23,1.23,0,0,0,1.39-1.39V19Zm6.24,21.71h-4.85v8.55h4.85Zm14.09,0h-4.85v8.55h4.85Zm7.62-15.24q0,5.78-5.54,5.77h-4.85l-1.16-5.54h.7a1.22,1.22,0,0,0,1.38-1.39V1.48h26.56v24c0,3.85-1.84,5.77-5.54,5.77h-6.47l-1.15-5.54h2.31a1.22,1.22,0,0,0,1.38-1.39v-.69h-7.62Zm7.62-17.09h-7.62V11h7.62Zm0,7.62h-7.62v2.54h7.62Zm-6,33.26h5.31V40.74h-5.31Z"/></svg>