<svg id="圖層_1" data-name="圖層 1" xmlns="http://www.w3.org/2000/svg" viewBox="0 0 345.39 155.44"><defs><style>.cls-1{fill:#3e3a39;}.cls-2{fill:none;stroke:#3e3a39;stroke-miterlimit:10;}</style></defs><path class="cls-1" d="M0,34.22c0-.43.56-1.24,1.7-2.45s2.5-2.62,4.11-4.23,3.21-3.33,4.8-5.17a31.6,31.6,0,0,0,4.08-6,13,13,0,0,0,1.7-6,8.14,8.14,0,0,0-1.51-4.8,5,5,0,0,0-4.35-2.16A14.36,14.36,0,0,0,6.27,4,7.71,7.71,0,0,0,3.52,5.41,9.72,9.72,0,0,0,2,7,12.61,12.61,0,0,0,1.09,8.4C.87,8.78.71,9,.59,9Q.11,9,.11,8.4A5.25,5.25,0,0,1,.69,6.5,15.13,15.13,0,0,1,2.42,3.71,9.06,9.06,0,0,1,5.81,1.09,11.36,11.36,0,0,1,10.87,0c3.56,0,6.24.93,8,2.79a9.56,9.56,0,0,1,2.67,6.87q0,2.36-2.23,5.84a38.88,38.88,0,0,1-5.08,6.35Q11.4,24.73,9,27.2c-1.57,1.65-2.35,2.64-2.35,3H18.82A6.48,6.48,0,0,0,22,26.57h1.15L21,34.22Z"/><path class="cls-1" d="M31.08,29.77a22.21,22.21,0,0,1-3.25-12.35A22.35,22.35,0,0,1,31.08,5.05a10.34,10.34,0,0,1,17.77,0A22.35,22.35,0,0,1,52.1,17.42a22.21,22.21,0,0,1-3.25,12.35,10.37,10.37,0,0,1-17.77,0ZM35,6.49a28.26,28.26,0,0,0-2,10.93,28.05,28.05,0,0,0,2,10.91q2,4.74,5,4.74t5-4.74a28.05,28.05,0,0,0,2-10.91,28.26,28.26,0,0,0-2-10.93c-1.32-3.18-3-4.76-5-4.76S36.31,3.31,35,6.49Z"/><path class="cls-1" d="M56.35,34.22c0-.43.57-1.24,1.7-2.45s2.5-2.62,4.11-4.23,3.21-3.33,4.8-5.17a32.12,32.12,0,0,0,4.09-6,13,13,0,0,0,1.69-6,8.14,8.14,0,0,0-1.51-4.8,5,5,0,0,0-4.35-2.16A14.45,14.45,0,0,0,62.62,4a7.71,7.71,0,0,0-2.75,1.39A10.16,10.16,0,0,0,58.36,7a14.26,14.26,0,0,0-.92,1.38c-.21.38-.38.57-.5.57-.31,0-.47-.19-.47-.57A5.19,5.19,0,0,1,57,6.5a15.69,15.69,0,0,1,1.73-2.79,9.22,9.22,0,0,1,3.39-2.62A11.39,11.39,0,0,1,67.22,0q5.36,0,8,2.79a9.52,9.52,0,0,1,2.68,6.87q0,2.36-2.24,5.84a38.36,38.36,0,0,1-5.08,6.35q-2.85,2.88-5.2,5.35c-1.58,1.65-2.36,2.64-2.36,3H75.17a6.44,6.44,0,0,0,3.2-3.62h1.15l-2.18,7.65Z"/><path class="cls-1" d="M100.63.57V30.71c0,.8.78,1.39,2.34,1.75a20.9,20.9,0,0,0,4.85.55v1.21H88.27V33a21,21,0,0,0,4.85-.55c1.56-.36,2.34-.95,2.34-1.75v-22a72.57,72.57,0,0,0-6.1,4.2l-.4-1L99.11.57Z"/><path class="cls-1" d="M18.4,74v30.13c0,.81.78,1.39,2.34,1.76a21.46,21.46,0,0,0,4.85.54v1.21H6v-1.21a21.52,21.52,0,0,0,4.85-.54c1.56-.37,2.34-1,2.34-1.76v-22a72.57,72.57,0,0,0-6.1,4.2l-.4-1L16.88,74Z"/><path class="cls-1" d="M33.38,103.18a22.23,22.23,0,0,1-3.25-12.35,22.38,22.38,0,0,1,3.25-12.38,10.35,10.35,0,0,1,17.77,0A22.47,22.47,0,0,1,54.4,90.83a22.31,22.31,0,0,1-3.25,12.35,10.37,10.37,0,0,1-17.77,0Zm3.91-23.29a28.31,28.31,0,0,0-2,10.94,28.09,28.09,0,0,0,2,10.91q2,4.73,5,4.73t5-4.73a28.09,28.09,0,0,0,2-10.91,28.31,28.31,0,0,0-2-10.94q-2-4.76-5-4.76T37.29,79.89Z"/><path class="cls-1" d="M57.5,108.2,79.87,72.43l1.67,1L59.17,109.23Z"/><path class="cls-1" d="M87.89,103.18a22.31,22.31,0,0,1-3.25-12.35,22.47,22.47,0,0,1,3.25-12.38,10.35,10.35,0,0,1,17.77,0,22.38,22.38,0,0,1,3.25,12.38,22.23,22.23,0,0,1-3.25,12.35,10.37,10.37,0,0,1-17.77,0ZM91.8,79.89a28.31,28.31,0,0,0-2,10.94,28.09,28.09,0,0,0,2,10.91c1.33,3.15,3,4.73,5,4.73s3.65-1.58,5-4.73a27.9,27.9,0,0,0,2-10.91,28.13,28.13,0,0,0-2-10.94q-2-4.76-5-4.76C94.78,75.13,93.13,76.72,91.8,79.89Z"/><path class="cls-1" d="M129.27,74v30.13c0,.81.78,1.39,2.33,1.76a21.55,21.55,0,0,0,4.86.54v1.21H116.9v-1.21a21.39,21.39,0,0,0,4.85-.54c1.56-.37,2.34-1,2.34-1.76v-22a72.67,72.67,0,0,0-6.09,4.2l-.41-1L127.75,74Z"/><path class="cls-1" d="M226.71,74v30.13c0,.81.78,1.39,2.33,1.76a21.52,21.52,0,0,0,4.85.54v1.21H214.34v-1.21a21.46,21.46,0,0,0,4.85-.54c1.56-.37,2.34-1,2.34-1.76v-22a72.67,72.67,0,0,0-6.09,4.2l-.41-1L225.19,74Z"/><path class="cls-1" d="M254.88,74v30.13c0,.81.78,1.39,2.34,1.76a21.52,21.52,0,0,0,4.85.54v1.21H242.52v-1.21a21.52,21.52,0,0,0,4.85-.54c1.56-.37,2.34-1,2.34-1.76v-22a72.57,72.57,0,0,0-6.1,4.2l-.4-1L253.36,74Z"/><path class="cls-1" d="M265.81,108.2l22.37-35.77,1.67,1-22.37,35.77Z"/><path class="cls-1" d="M303.51,90.89a1.11,1.11,0,0,1-.69-.24.69.69,0,0,1-.32-.55q0-.24.39-.42a14.11,14.11,0,0,0,5.05-2.78,6.23,6.23,0,0,0,2.15-5,4.67,4.67,0,0,0-1.59-3.72A6.59,6.59,0,0,0,304,76.86a10.17,10.17,0,0,0-4,.69,5,5,0,0,0-2.24,1.55c-.39.57-.73,1.09-1,1.55s-.5.69-.65.69q-.45,0-.45-.57a4.35,4.35,0,0,1,.52-1.73,13.54,13.54,0,0,1,1.52-2.41,8.28,8.28,0,0,1,2.88-2.28,9.07,9.07,0,0,1,4.17-.94q5.52,0,8,2a7,7,0,0,1,2.47,5.85q0,4.13-5.81,7.33A9.31,9.31,0,0,1,314.59,92a9.14,9.14,0,0,1,2.22,5.7,14.35,14.35,0,0,1-.5,4,8.85,8.85,0,0,1-1.76,3.27,8,8,0,0,1-3.77,2.36,19.32,19.32,0,0,1-6.1.84,17.57,17.57,0,0,1-4.53-.58,13.33,13.33,0,0,1-3.49-1.38,10.9,10.9,0,0,1-2.12-1.58c-.52-.52-.78-.91-.78-1.18a4.81,4.81,0,0,1,.43-2.41,1.81,1.81,0,0,1,1.66-.69,1.19,1.19,0,0,1,1,.63,12.33,12.33,0,0,1,.81,1.52,10.55,10.55,0,0,0,1,1.78,4.9,4.9,0,0,0,2.1,1.53,8.9,8.9,0,0,0,3.54.63q7.31,0,7.31-7.59a13.48,13.48,0,0,0-.45-3.28,8.51,8.51,0,0,0-1.8-3.4,4.08,4.08,0,0,0-3.25-1.61,6.75,6.75,0,0,0-1.37.15A6.28,6.28,0,0,1,303.51,90.89Z"/><path class="cls-1" d="M324.38,103.18a22.23,22.23,0,0,1-3.25-12.35,22.38,22.38,0,0,1,3.25-12.38,10.35,10.35,0,0,1,17.77,0,22.46,22.46,0,0,1,3.24,12.38,22.31,22.31,0,0,1-3.24,12.35,10.37,10.37,0,0,1-17.77,0Zm3.91-23.29a28.13,28.13,0,0,0-2,10.94,27.9,27.9,0,0,0,2,10.91q2,4.73,5,4.73t5-4.73a27.9,27.9,0,0,0,2-10.91,28.13,28.13,0,0,0-2-10.94q-2-4.76-5-4.76T328.29,79.89Z"/><line class="cls-2" x1="155.54" y1="92.17" x2="193.71" y2="92.17"/><path class="cls-1" d="M8.59,155.12v-.67c1.18,0,1.87-.21,2.07-.64v-16q-.3-.63-2.07-.63v-.67H21.5v3.09h-.67c0-1.15-.21-1.82-.65-2H13.53v7.33H18c.43-.19.65-.86.65-2h.67V148h-.67c0-1.15-.22-1.82-.65-2H13.53v7.84c.2.43.89.64,2.07.64v.67Z"/><path class="cls-1" d="M23.29,155.12v-.67c1.15,0,1.82-.21,2-.64V143l-2-.16v-.67a8.74,8.74,0,0,0,2.38-.68,8.23,8.23,0,0,1,2.5-.69v1.4a4.83,4.83,0,0,1,3.16-1.4,4.89,4.89,0,0,1,2.4.54c.65.36,1,.77,1,1.21,0,.77-.43,1.15-1.28,1.15-.45,0-.85-.3-1.21-.91a1.52,1.52,0,0,0-1.24-.9,4.61,4.61,0,0,0-2.81,1.3v10.65c.19.43.86.64,2,.64v.67Z"/><path class="cls-1" d="M35.89,155.12v-.67c1.14,0,1.81-.21,2-.64V143l-2-.16v-.67a8.71,8.71,0,0,0,2.37-.68,8.31,8.31,0,0,1,2.5-.69v13c.2.43.87.64,2,.64v.67Zm3.34-16.39A1.68,1.68,0,0,1,38,138.2a1.83,1.83,0,0,1-.53-1.35,1.9,1.9,0,0,1,.46-1.28,1.51,1.51,0,0,1,1.2-.54,1.7,1.7,0,0,1,1.24.54,1.86,1.86,0,0,1,.54,1.37,1.84,1.84,0,0,1-.47,1.26A1.59,1.59,0,0,1,39.23,138.73Z"/><path class="cls-1" d="M214.92,136.47h16v3.09h-.67c0-1.15-.21-1.82-.64-2h-5.26v16.26c.2.43.89.64,2.08.64v.67h-7v-.67c1.19,0,1.88-.21,2.07-.64V137.55h-5.23q-.63.28-.63,2h-.67Z"/><path class="cls-1" d="M246.33,153.24l2,.16v.67a8.65,8.65,0,0,0-2.38.68,8.23,8.23,0,0,1-2.5.69V154a5.77,5.77,0,0,1-3.8,1.46,6.75,6.75,0,0,1-4.29-1.1,4.21,4.21,0,0,1-1.32-3.43V142.4c-.19-.43-.86-.64-2-.64v-.67h4.88v10c0,2.14,1,3.22,2.93,3.22a5.44,5.44,0,0,0,3.61-1.35V142.4c-.19-.43-.86-.64-2-.64v-.67h4.88Z"/><path class="cls-1" d="M253.15,147.44a7.93,7.93,0,0,0,1.55,4.73,4.26,4.26,0,0,0,3.4,2.06,5.44,5.44,0,0,0,4.46-2.11l.77.39a5.61,5.61,0,0,1-2.41,2.23,9.18,9.18,0,0,1-3.91.7,7.29,7.29,0,0,1-2.33-.37,6.55,6.55,0,0,1-2.15-1.21,5.6,5.6,0,0,1-1.64-2.5,11.39,11.39,0,0,1-.61-4,6.73,6.73,0,0,1,1.74-4.72,6.19,6.19,0,0,1,4.83-1.92,6.34,6.34,0,0,1,5,1.9,7,7,0,0,1,1.66,4.77Zm0-1h7.08a7.71,7.71,0,0,0-1-3.53,3,3,0,0,0-2.73-1.22,2.86,2.86,0,0,0-2.15,1.31A6.41,6.41,0,0,0,253.18,146.48Z"/><path class="cls-1" d="M271.36,154.48a4.19,4.19,0,0,0,2-.57,1.85,1.85,0,0,0,1.07-1.72c0-1.23-1.26-2.3-3.79-3.19a13.2,13.2,0,0,1-1.52-.61,8.82,8.82,0,0,1-1.29-.79,3.22,3.22,0,0,1-1.05-1.25,3.86,3.86,0,0,1-.35-1.72,3.4,3.4,0,0,1,1.3-2.82,5,5,0,0,1,3.16-1,5.7,5.7,0,0,1,2.22.48,7,7,0,0,0,1.29.48c.25,0,.38-.21.38-.64h.74v3.83h-.71a3.48,3.48,0,0,0-1.29-2.27,3.85,3.85,0,0,0-2.53-.92,2.92,2.92,0,0,0-1.71.48,1.48,1.48,0,0,0-.68,1.3,2,2,0,0,0,.19.88,2.84,2.84,0,0,0,.38.64,2.47,2.47,0,0,0,.72.52,6.47,6.47,0,0,0,.79.4c.18.08.51.2,1,.37l1,.35a8.21,8.21,0,0,1,2.84,1.8,3.79,3.79,0,0,1-.38,5.81,6.47,6.47,0,0,1-3.95,1.16,5,5,0,0,1-2.24-.54,6.79,6.79,0,0,0-1.21-.54.67.67,0,0,0-.44.25.74.74,0,0,0-.26.51h-.76v-4.5h.7a4.32,4.32,0,0,0,1.51,2.75A4.41,4.41,0,0,0,271.36,154.48Z"/><line class="cls-2" x1="3.28" y1="52.55" x2="342.15" y2="52.55"/></svg>