<svg id="圖層_1" data-name="圖層 1" xmlns="http://www.w3.org/2000/svg" viewBox="0 0 160.79 110.08"><defs><style>.cls-1{fill:#a09c9f;}</style></defs><path class="cls-1" d="M12.4,7.57a2.24,2.24,0,0,1-.57-.08C8.19,6.4,4.64,5.18,1.27,3.86A2,2,0,0,1,2.73.14C6,1.41,9.44,2.59,13,3.65a2,2,0,0,1-.58,3.92Z"/><path class="cls-1" d="M73.68,107.79a2,2,0,0,1-.22-4c7.8-.84,15.35-1.93,22.43-3.23a2,2,0,1,1,.72,3.94c-7.18,1.31-14.82,2.41-22.71,3.27Zm44.84-8.17a2,2,0,0,1-.52-3.93,83.5,83.5,0,0,0,20.62-8.26,2,2,0,0,1,2,3.44,87.21,87.21,0,0,1-21.61,8.67A1.89,1.89,0,0,1,118.52,99.62Zm36.94-24.47a2,2,0,0,1-.9-.22,2,2,0,0,1-.88-2.69,28.4,28.4,0,0,0,3.11-13,30.7,30.7,0,0,0-1-7.77,2,2,0,0,1,3.87-1,34.61,34.61,0,0,1,1.15,8.79,32.4,32.4,0,0,1-3.54,14.82A2,2,0,0,1,155.46,75.15ZM145.32,34.28a2,2,0,0,1-1.22-.42l-.44-.33A61.22,61.22,0,0,0,124.44,24a2,2,0,0,1,1.19-3.83,65.63,65.63,0,0,1,20.45,10.13l.47.36a2,2,0,0,1-1.23,3.58ZM102.71,19.6l-.25,0c-6.4-.79-12.82-1.3-19-1.79l-3.62-.28a2,2,0,0,1,.32-4l3.61.29c6.25.49,12.71,1,19.2,1.8a2,2,0,0,1-.24,4ZM57.26,15.49h-.2c-8.94-.88-16.17-1.8-22.75-2.9A2,2,0,1,1,35,8.64c6.49,1.08,13.64,2,22.49,2.86a2,2,0,0,1-.2,4Z"/><path class="cls-1" d="M39.91,110.08a2,2,0,0,1-.06-4c3.74-.12,7.43-.28,10.95-.47a2,2,0,0,1,.21,4c-3.55.19-7.26.35-11,.48Z"/></svg>